<svg width="39" height="39" viewBox="0 0 39 39" fill="none" xmlns="http://www.w3.org/2000/svg">
<circle cx="19.5" cy="19.5" r="18.5" stroke="#2FB490" stroke-width="2"/>
<path d="M15.9583 22.472C16.9823 21.6187 17.7983 20.9093 18.4062 20.344C19.0143 19.768 19.5209 19.1707 19.9263 18.552C20.3316 17.9333 20.5343 17.3253 20.5343 16.728C20.5343 16.184 20.4063 15.7573 20.1503 15.448C19.8943 15.1387 19.4996 14.984 18.9663 14.984C18.4329 14.984 18.0223 15.1653 17.7343 15.528C17.4463 15.88 17.2969 16.3653 17.2863 16.984H15.1103C15.1529 15.704 15.5316 14.7333 16.2463 14.072C16.9716 13.4107 17.8889 13.08 18.9983 13.08C20.2143 13.08 21.1476 13.4053 21.7983 14.056C22.4489 14.696 22.7743 15.544 22.7743 16.6C22.7743 17.432 22.5503 18.2267 22.1023 18.984C21.6543 19.7413 21.1423 20.4027 20.5663 20.968C19.9903 21.5227 19.2383 22.1947 18.3103 22.984H23.0303V24.84H15.1263V23.176L15.9583 22.472Z" fill="#404252"/>
</svg>
