<svg width="96" height="96" viewBox="0 0 96 96" fill="none" xmlns="http://www.w3.org/2000/svg">
<g clip-path="url(#clip0_837_1223)">
<path d="M87 48C87 37.6566 82.8911 27.7368 75.5772 20.4228C68.2632 13.1089 58.3434 9 48 9C37.6566 9 27.7368 13.1089 20.4228 20.4228C13.1089 27.7368 9 37.6566 9 48C9 58.3434 13.1089 68.2632 20.4228 75.5772C27.7368 82.8911 37.6566 87 48 87C58.3434 87 68.2632 82.8911 75.5772 75.5772C82.8911 68.2632 87 58.3434 87 48ZM0 48C0 35.2696 5.05713 23.0606 14.0589 14.0589C23.0606 5.05713 35.2696 0 48 0C60.7304 0 72.9394 5.05713 81.9411 14.0589C90.9429 23.0606 96 35.2696 96 48C96 60.7304 90.9429 72.9394 81.9411 81.9411C72.9394 90.9429 60.7304 96 48 96C35.2696 96 23.0606 90.9429 14.0589 81.9411C5.05713 72.9394 0 60.7304 0 48ZM35.3063 27.5813C36.7313 26.7938 38.4563 26.8125 39.8625 27.675L66.8625 44.175C68.1938 45 69.0188 46.4438 69.0188 48.0188C69.0188 49.5938 68.1938 51.0375 66.8625 51.8625L39.8625 68.3625C38.475 69.2063 36.7313 69.2438 35.3063 68.4563C33.8813 67.6688 33 66.1688 33 64.5375V31.5C33 29.8688 33.8813 28.3688 35.3063 27.5813Z" fill="#D2D4DA"/>
</g>
<defs>
<clipPath id="clip0_837_1223">
<rect width="96" height="96" fill="white"/>
</clipPath>
</defs>
</svg>
