<svg width="16" height="17" viewBox="0 0 16 17" fill="none" xmlns="http://www.w3.org/2000/svg">
<path d="M10 0.5V4.5H14L10 0.5Z" fill="#1BA38E"/>
<path d="M10 5.5C9.44688 5.5 9 5.05313 9 4.5V0.5H4C2.89688 0.5 2 1.39688 2 2.5V14.5C2 15.6031 2.89688 16.5 4 16.5H12C13.1031 16.5 14 15.6031 14 14.5V5.5H10ZM6.36906 12.9322C6.36906 13.3384 6.03969 13.6675 5.63375 13.6675H5.47281C5.06656 13.6675 4.7375 13.3381 4.7375 12.9322V8.72625C4.7375 8.32 5.06687 7.99094 5.47281 7.99094H5.63375C6.04 7.99094 6.36906 8.32031 6.36906 8.72625V12.9322ZM6.5 5.5H4.5C4.225 5.5 4 5.275 4 5C4 4.725 4.225 4.5 4.5 4.5H6.5C6.775 4.5 7 4.725 7 5C7 5.275 6.775 5.5 6.5 5.5ZM6.5 3.5H4.5C4.225 3.5 4 3.275 4 3C4 2.725 4.225 2.5 4.5 2.5H6.5C6.775 2.5 7 2.725 7 3C7 3.275 6.775 3.5 6.5 3.5ZM8.82969 12.9303C8.82969 13.3366 8.50031 13.6656 8.09438 13.6656H7.93344C7.52719 13.6656 7.19812 13.3362 7.19812 12.9303V8.72437C7.19812 8.31812 7.5275 7.98906 7.93344 7.98906H8.09438C8.50063 7.98906 8.82969 8.31844 8.82969 8.72437V12.9303ZM11.2903 12.9322C11.2903 13.3384 10.9609 13.6675 10.555 13.6675H10.3941C9.98781 13.6675 9.65875 13.3381 9.65875 12.9322V8.72625C9.65875 8.32 9.98812 7.99094 10.3941 7.99094H10.555C10.9613 7.99094 11.2903 8.32031 11.2903 8.72625V12.9322Z" fill="#1BA38E"/>
</svg>
