<svg width="16" height="17" viewBox="0 0 16 17" fill="none" xmlns="http://www.w3.org/2000/svg">
<path d="M4 0.5C2.89688 0.5 2 1.39688 2 2.5V14.5C2 15.6031 2.89688 16.5 4 16.5H12C13.1031 16.5 14 15.6031 14 14.5V5.5H10C9.44688 5.5 9 5.05312 9 4.5V0.5H4ZM10 0.5V4.5H14L10 0.5ZM4 3C4 2.725 4.225 2.5 4.5 2.5H6.5C6.775 2.5 7 2.725 7 3C7 3.275 6.775 3.5 6.5 3.5H4.5C4.225 3.5 4 3.275 4 3ZM4 5C4 4.725 4.225 4.5 4.5 4.5H6.5C6.775 4.5 7 4.725 7 5C7 5.275 6.775 5.5 6.5 5.5H4.5C4.225 5.5 4 5.275 4 5ZM8 7.25C8.275 7.25 8.5 7.475 8.5 7.75V8.29063C8.76562 8.32812 9.02188 8.3875 9.25313 8.45C9.51875 8.52187 9.67812 8.79375 9.60625 9.0625C9.53437 9.33125 9.2625 9.4875 8.99375 9.41562C8.64687 9.32187 8.30625 9.25313 7.99062 9.25C7.72813 9.24687 7.44688 9.30625 7.25313 9.42188C7.075 9.52812 7 9.65 7 9.82187C7 9.9375 7.04063 10.025 7.22813 10.1375C7.44375 10.2656 7.74687 10.3594 8.14062 10.4781L8.15625 10.4812C8.50938 10.5875 8.94688 10.7188 9.29063 10.9375C9.66875 11.175 9.99062 11.5531 10 12.1313C10.0094 12.7344 9.7 13.1719 9.28438 13.4312C9.04375 13.5812 8.77187 13.6687 8.5 13.7156V14.25C8.5 14.525 8.275 14.75 8 14.75C7.725 14.75 7.5 14.525 7.5 14.25V13.6938C7.15 13.6281 6.82188 13.5156 6.53438 13.4156C6.46875 13.3937 6.40312 13.3719 6.34062 13.35C6.07812 13.2625 5.9375 12.9781 6.025 12.7188C6.1125 12.4594 6.39687 12.3156 6.65625 12.4031C6.73438 12.4281 6.80625 12.4531 6.87813 12.4781C7.30313 12.6219 7.64687 12.7406 8.0125 12.75C8.29688 12.7594 8.57188 12.6969 8.75313 12.5844C8.9125 12.4844 9 12.3563 8.99687 12.1469C8.99375 12.0031 8.94062 11.9031 8.75625 11.7844C8.54375 11.65 8.24062 11.5531 7.85 11.4344L7.8 11.4187C7.45625 11.3156 7.04063 11.1906 6.7125 10.9906C6.3375 10.7656 6.00625 10.4 6.00313 9.825C6 9.21875 6.34062 8.8 6.74687 8.55937C6.98125 8.42188 7.24062 8.33437 7.5 8.2875V7.75C7.5 7.475 7.725 7.25 8 7.25Z" fill="#1BA38E"/>
</svg>
