<svg width="16" height="17" viewBox="0 0 16 17" fill="none" xmlns="http://www.w3.org/2000/svg">
<path d="M10 0.5V4.5H14L10 0.5Z" fill="#1BA38E"/>
<path d="M8.49187 9.01344C8.24406 8.93719 7.94437 8.89906 7.59312 8.89906H6.83406V12.7531H7.70562C7.89656 12.7531 8.04656 12.7481 8.155 12.7375C8.26344 12.7272 8.37562 12.7013 8.49187 12.66C8.60812 12.6188 8.70875 12.5606 8.79406 12.4856C9.17875 12.1603 9.37125 11.6 9.37125 10.8044C9.37125 10.2441 9.28656 9.82438 9.1175 9.54563C8.94844 9.26688 8.73969 9.08938 8.49187 9.01344Z" fill="#1BA38E"/>
<path d="M10 5.5C9.44688 5.5 9 5.05313 9 4.5V0.5H4C2.89688 0.5 2 1.39688 2 2.5V14.5C2 15.6031 2.89688 16.5 4 16.5H12C13.1031 16.5 14 15.6031 14 14.5V5.5H10ZM4.5 2.5H6.5C6.775 2.5 7 2.725 7 3C7 3.275 6.775 3.5 6.5 3.5H4.5C4.225 3.5 4 3.275 4 3C4 2.725 4.225 2.5 4.5 2.5ZM4 5C4 4.725 4.225 4.5 4.5 4.5H6.5C6.775 4.5 7 4.725 7 5C7 5.275 6.775 5.5 6.5 5.5H4.5C4.225 5.5 4 5.275 4 5ZM10.4481 11.7463C10.3888 12.0278 10.2972 12.2816 10.1731 12.5075C10.0491 12.7334 9.89031 12.9356 9.69656 13.1138C9.54406 13.2506 9.3775 13.3603 9.19688 13.4431C9.01625 13.5259 8.82187 13.5838 8.61406 13.6175C8.40625 13.6513 8.17188 13.6678 7.91094 13.6678H6.41187C6.20281 13.6678 6.045 13.6362 5.93937 13.5728C5.83344 13.5097 5.76438 13.4206 5.73219 13.3056C5.7 13.1906 5.68375 13.0416 5.68375 12.8581V8.69406C5.68375 8.44625 5.73938 8.26656 5.85031 8.15563C5.96125 8.04469 6.14094 7.98906 6.38875 7.98906H7.88781C8.27781 7.98906 8.61219 8.02531 8.89094 8.0975C9.16969 8.16969 9.42281 8.30531 9.65 8.50438C10.2413 9.01063 10.5372 9.78 10.5372 10.8131C10.5372 11.1541 10.5075 11.465 10.4481 11.7463Z" fill="#1BA38E"/>
</svg>
