<?xml version="1.0" encoding="UTF-8"?><svg id="Layer_1" xmlns="http://www.w3.org/2000/svg" viewBox="0 0 243 90"><defs><style>.cls-1{fill:#07ad7e;}.cls-2{fill:#111;}.cls-3{fill:#0dce9a;}</style></defs><g><path class="cls-2" d="M109.3,38.45c-1.93,0-3.62-.41-5.07-1.23-1.46-.82-2.59-1.97-3.4-3.46s-1.21-3.2-1.21-5.15v-.47c0-1.98,.4-3.71,1.21-5.19s1.93-2.63,3.36-3.46c1.43-.82,3.07-1.23,4.92-1.23s3.38,.38,4.76,1.15c1.38,.77,2.46,1.87,3.24,3.3,.78,1.43,1.17,3.11,1.17,5.04v1.41h-15.57c.08,2.06,.74,3.66,1.99,4.82,1.25,1.16,2.81,1.74,4.68,1.74,1.64,0,2.9-.38,3.79-1.13,.88-.75,1.56-1.65,2.03-2.69l2.65,1.29c-.39,.81-.93,1.61-1.62,2.42s-1.59,1.48-2.69,2.03c-1.11,.55-2.52,.82-4.23,.82Zm-6.56-11.83h12.41c-.11-1.77-.71-3.15-1.82-4.14-1.11-.99-2.52-1.48-4.23-1.48s-3.17,.5-4.29,1.48c-1.12,.99-1.81,2.37-2.07,4.14Z"/><path class="cls-2" d="M121.29,37.91V18.82h3.01v2.38h.55c.37-.68,.96-1.3,1.79-1.87,.83-.57,2-.86,3.51-.86s2.69,.33,3.61,.98c.92,.65,1.59,1.44,2.01,2.38h.55c.44-.94,1.11-1.73,2.01-2.38,.9-.65,2.15-.98,3.77-.98,1.28,0,2.39,.26,3.36,.78s1.72,1.27,2.28,2.24c.56,.98,.84,2.14,.84,3.49v12.92h-3.08v-12.65c0-1.27-.37-2.28-1.11-3.03-.74-.74-1.78-1.11-3.1-1.11-1.41,0-2.56,.46-3.46,1.37-.9,.91-1.35,2.22-1.35,3.94v11.48h-3.08v-12.65c0-1.27-.37-2.28-1.11-3.03-.74-.74-1.78-1.11-3.1-1.11-1.4,0-2.56,.46-3.45,1.37-.9,.91-1.35,2.22-1.35,3.94v11.48h-3.08Z"/><path class="cls-2" d="M154.04,15.85c-.68,0-1.24-.22-1.7-.66s-.68-1-.68-1.68,.23-1.27,.68-1.72c.46-.44,1.02-.66,1.7-.66s1.24,.22,1.68,.66c.44,.44,.66,1.02,.66,1.72s-.22,1.24-.66,1.68c-.44,.44-1,.66-1.68,.66Zm-1.56,22.05V18.82h3.08v19.09h-3.08Z"/><path class="cls-2" d="M167.35,38.45c-2.37,0-4.37-.55-5.99-1.64-1.62-1.09-2.61-2.82-2.95-5.19l2.93-.66c.21,1.25,.6,2.23,1.17,2.95,.57,.72,1.28,1.22,2.13,1.52,.85,.3,1.75,.45,2.71,.45,1.43,0,2.56-.29,3.4-.86,.83-.57,1.25-1.34,1.25-2.3s-.4-1.68-1.19-2.09c-.79-.4-1.88-.74-3.26-1l-1.6-.27c-1.22-.21-2.34-.53-3.36-.98-1.02-.44-1.82-1.04-2.42-1.79-.6-.75-.9-1.7-.9-2.85,0-1.72,.66-3.06,1.99-4.02,1.33-.96,3.08-1.44,5.27-1.44s3.91,.49,5.25,1.46,2.21,2.35,2.6,4.12l-2.89,.74c-.23-1.38-.79-2.35-1.68-2.91s-1.98-.84-3.28-.84-2.33,.24-3.08,.72c-.76,.48-1.13,1.19-1.13,2.13s.36,1.58,1.07,2.01c.71,.43,1.67,.75,2.87,.96l1.6,.27c1.35,.23,2.57,.55,3.65,.96s1.94,.98,2.58,1.74c.64,.76,.96,1.74,.96,2.97,0,1.87-.7,3.32-2.09,4.33-1.39,1.01-3.26,1.52-5.6,1.52Z"/><path class="cls-2" d="M185.53,38.45c-2.37,0-4.37-.55-5.99-1.64-1.63-1.09-2.61-2.82-2.95-5.19l2.93-.66c.21,1.25,.6,2.23,1.17,2.95,.57,.72,1.28,1.22,2.13,1.52,.84,.3,1.75,.45,2.71,.45,1.43,0,2.56-.29,3.4-.86,.83-.57,1.25-1.34,1.25-2.3s-.4-1.68-1.19-2.09-1.88-.74-3.26-1l-1.6-.27c-1.22-.21-2.34-.53-3.36-.98-1.01-.44-1.82-1.04-2.42-1.79-.6-.75-.9-1.7-.9-2.85,0-1.72,.66-3.06,1.99-4.02,1.33-.96,3.08-1.44,5.27-1.44s3.91,.49,5.25,1.46c1.34,.98,2.21,2.35,2.6,4.12l-2.89,.74c-.23-1.38-.79-2.35-1.68-2.91-.89-.56-1.98-.84-3.28-.84s-2.33,.24-3.08,.72c-.76,.48-1.13,1.19-1.13,2.13s.36,1.58,1.07,2.01c.71,.43,1.67,.75,2.87,.96l1.6,.27c1.35,.23,2.57,.55,3.65,.96s1.94,.98,2.58,1.74c.64,.76,.96,1.74,.96,2.97,0,1.87-.7,3.32-2.09,4.33s-3.26,1.52-5.6,1.52Z"/><path class="cls-2" d="M201.73,38.45c-1.33,0-2.54-.23-3.63-.7-1.09-.47-1.95-1.14-2.58-2.03-.62-.88-.94-1.96-.94-3.24s.31-2.37,.94-3.22c.62-.85,1.48-1.48,2.58-1.91,1.09-.43,2.31-.64,3.67-.64h6.44v-1.41c0-1.35-.4-2.42-1.19-3.2-.79-.78-1.97-1.17-3.53-1.17s-2.73,.37-3.59,1.11c-.86,.74-1.45,1.74-1.76,2.99l-2.89-.94c.31-1.07,.81-2.04,1.48-2.91,.68-.87,1.58-1.57,2.71-2.11,1.13-.53,2.49-.8,4.08-.8,2.45,0,4.35,.63,5.7,1.89,1.35,1.26,2.03,3.04,2.03,5.33v8.63c0,.78,.37,1.17,1.09,1.17h1.76v2.62h-2.69c-.86,0-1.55-.24-2.07-.72-.52-.48-.78-1.13-.78-1.93v-.2h-.47c-.29,.5-.67,1.01-1.15,1.54s-1.14,.98-1.97,1.33c-.83,.35-1.91,.53-3.24,.53Zm-2.42-21.86l-1.95-1.13,1.21-2.19c.31-.52,.7-.93,1.15-1.23,.46-.3,.98-.45,1.58-.45,.55,0,1.02,.11,1.43,.33,.4,.22,.84,.58,1.31,1.07,.31,.37,.6,.67,.86,.92s.53,.37,.82,.37,.52-.08,.7-.25,.35-.38,.51-.64l.94-1.68,1.95,1.13-1.21,2.22c-.29,.52-.65,.93-1.09,1.23-.44,.3-.98,.45-1.6,.45-.55,0-1.03-.11-1.45-.33-.42-.22-.85-.59-1.29-1.11-.31-.34-.6-.63-.86-.88-.26-.25-.53-.37-.82-.37-.31,0-.56,.08-.74,.25-.18,.17-.34,.37-.47,.61l-.98,1.68Zm2.77,19.2c1.82,0,3.3-.54,4.43-1.62,1.13-1.08,1.7-2.6,1.7-4.55v-.43h-6.32c-1.22,0-2.23,.27-3.03,.8-.79,.53-1.19,1.33-1.19,2.4s.41,1.9,1.23,2.5c.82,.6,1.88,.9,3.18,.9Z"/><path class="cls-2" d="M224.22,38.45c-1.93,0-3.62-.4-5.09-1.21-1.47-.81-2.62-1.95-3.44-3.42-.82-1.47-1.23-3.21-1.23-5.21v-.51c0-1.98,.41-3.71,1.23-5.19s1.96-2.63,3.44-3.44c1.47-.81,3.17-1.21,5.09-1.21s3.62,.4,5.09,1.21c1.47,.81,2.62,1.95,3.43,3.44,.82,1.48,1.23,3.21,1.23,5.19v.51c0,2-.41,3.74-1.23,5.21-.82,1.47-1.96,2.61-3.43,3.42-1.47,.81-3.17,1.21-5.09,1.21Zm0-2.77c2.03,0,3.65-.64,4.86-1.93,1.21-1.29,1.81-3.02,1.81-5.21v-.35c0-2.19-.61-3.92-1.81-5.21-1.21-1.29-2.83-1.93-4.86-1.93s-3.62,.64-4.84,1.93c-1.22,1.29-1.83,3.02-1.83,5.21v.35c0,2.19,.61,3.92,1.83,5.21,1.22,1.29,2.84,1.93,4.84,1.93Z"/><path class="cls-2" d="M108.93,71.83c-2.72,0-4.95-.59-6.69-1.77-1.74-1.18-2.79-2.86-3.15-5.05l4.88-1.26c.2,.98,.53,1.75,.99,2.31s1.04,.96,1.72,1.2c.69,.24,1.44,.36,2.25,.36,1.23,0,2.14-.22,2.73-.65,.59-.43,.88-.97,.88-1.62s-.28-1.14-.84-1.49c-.56-.35-1.46-.64-2.69-.86l-1.18-.21c-1.46-.28-2.79-.67-3.99-1.16s-2.17-1.17-2.9-2.04c-.73-.87-1.09-1.99-1.09-3.36,0-2.07,.76-3.66,2.27-4.77s3.5-1.66,5.97-1.66c2.33,0,4.26,.52,5.8,1.56,1.54,1.04,2.55,2.4,3.03,4.08l-4.92,1.51c-.22-1.06-.68-1.82-1.37-2.27-.69-.45-1.54-.67-2.54-.67s-1.78,.18-2.31,.53c-.53,.35-.8,.83-.8,1.45,0,.67,.28,1.17,.84,1.49,.56,.32,1.32,.57,2.27,.74l1.18,.21c1.57,.28,2.99,.65,4.27,1.11,1.28,.46,2.29,1.12,3.03,1.98,.74,.86,1.11,2.01,1.11,3.47,0,2.19-.79,3.88-2.38,5.07s-3.71,1.79-6.37,1.79Z"/><path class="cls-2" d="M122.42,47.95c-.95,0-1.76-.31-2.42-.92s-.99-1.43-.99-2.44,.33-1.82,.99-2.44,1.46-.92,2.42-.92,1.79,.31,2.44,.92,.97,1.43,.97,2.44-.32,1.82-.97,2.44-1.46,.92-2.44,.92Zm-2.65,23.29v-20.85h5.3v20.85h-5.3Z"/><path class="cls-2" d="M128.43,71.24v-20.85h5.21v2.27h.76c.36-.7,.97-1.31,1.81-1.83,.84-.52,1.95-.78,3.32-.78,1.48,0,2.68,.29,3.57,.86,.9,.58,1.58,1.32,2.06,2.25h.76c.48-.9,1.15-1.64,2.02-2.23,.87-.59,2.1-.88,3.7-.88,1.29,0,2.46,.27,3.51,.82s1.89,1.37,2.52,2.48c.63,1.11,.95,2.5,.95,4.18v13.71h-5.3v-13.33c0-1.15-.29-2.01-.88-2.58-.59-.57-1.42-.86-2.48-.86-1.21,0-2.14,.39-2.8,1.16-.66,.77-.99,1.87-.99,3.3v12.32h-5.3v-13.33c0-1.15-.29-2.01-.88-2.58-.59-.57-1.42-.86-2.48-.86-1.21,0-2.14,.39-2.8,1.16-.66,.77-.99,1.87-.99,3.3v12.32h-5.3Z"/><path class="cls-2" d="M161.82,79.65v-29.26h5.21v2.52h.76c.48-.81,1.22-1.53,2.23-2.17,1.01-.63,2.45-.95,4.33-.95,1.68,0,3.24,.41,4.67,1.24,1.43,.83,2.58,2.04,3.45,3.64s1.3,3.53,1.3,5.8v.67c0,2.27-.43,4.21-1.3,5.8s-2.02,2.81-3.45,3.64c-1.43,.83-2.99,1.24-4.67,1.24-1.26,0-2.32-.15-3.17-.44-.86-.29-1.54-.67-2.06-1.14-.52-.46-.93-.93-1.24-1.41h-.76v10.8h-5.3Zm10.93-12.44c1.65,0,3.02-.53,4.1-1.58,1.08-1.05,1.62-2.58,1.62-4.6v-.42c0-2.02-.55-3.55-1.64-4.6-1.09-1.05-2.45-1.58-4.08-1.58s-2.98,.53-4.08,1.58c-1.09,1.05-1.64,2.59-1.64,4.6v.42c0,2.02,.55,3.55,1.64,4.6,1.09,1.05,2.45,1.58,4.08,1.58Z"/><path class="cls-2" d="M186.12,71.24v-29.43h5.3v29.43h-5.3Z"/><path class="cls-2" d="M204.28,71.83c-2.08,0-3.9-.44-5.49-1.32-1.58-.88-2.82-2.13-3.7-3.74-.88-1.61-1.32-3.51-1.32-5.7v-.5c0-2.19,.43-4.08,1.3-5.7,.87-1.61,2.09-2.86,3.66-3.74s3.39-1.32,5.46-1.32,3.83,.46,5.34,1.37c1.51,.91,2.69,2.17,3.53,3.78,.84,1.61,1.26,3.48,1.26,5.61v1.81h-15.18c.06,1.43,.59,2.59,1.6,3.49,1.01,.9,2.24,1.35,3.7,1.35s2.58-.32,3.28-.97c.7-.64,1.23-1.36,1.6-2.14l4.33,2.27c-.39,.73-.96,1.52-1.7,2.38-.74,.86-1.73,1.58-2.96,2.19-1.23,.6-2.8,.9-4.71,.9Zm-5.09-13.41h9.75c-.11-1.21-.6-2.17-1.45-2.9-.86-.73-1.97-1.09-3.34-1.09s-2.56,.36-3.41,1.09c-.84,.73-1.36,1.7-1.55,2.9Z"/><path class="cls-2" d="M225.17,71.83c-2.72,0-4.95-.59-6.69-1.77-1.74-1.18-2.79-2.86-3.15-5.05l4.88-1.26c.2,.98,.53,1.75,.99,2.31s1.04,.96,1.72,1.2c.69,.24,1.44,.36,2.25,.36,1.23,0,2.14-.22,2.73-.65,.59-.43,.88-.97,.88-1.62s-.28-1.14-.84-1.49c-.56-.35-1.46-.64-2.69-.86l-1.18-.21c-1.46-.28-2.79-.67-3.99-1.16s-2.17-1.17-2.9-2.04c-.73-.87-1.09-1.99-1.09-3.36,0-2.07,.76-3.66,2.27-4.77s3.5-1.66,5.97-1.66c2.33,0,4.26,.52,5.8,1.56,1.54,1.04,2.55,2.4,3.03,4.08l-4.92,1.51c-.22-1.06-.68-1.82-1.37-2.27-.69-.45-1.54-.67-2.54-.67s-1.78,.18-2.31,.53c-.53,.35-.8,.83-.8,1.45,0,.67,.28,1.17,.84,1.49,.56,.32,1.32,.57,2.27,.74l1.18,.21c1.57,.28,2.99,.65,4.27,1.11,1.28,.46,2.29,1.12,3.03,1.98,.74,.86,1.11,2.01,1.11,3.47,0,2.19-.79,3.88-2.38,5.07s-3.71,1.79-6.37,1.79Z"/></g><polygon class="cls-1" points="54 27 54 54 81 54 81 27 54 0 54 27"/><polygon class="cls-3" points="54 63 27.09 63 27 27 54 27 54 0 0 0 0 63 27 90 81 90 54 63"/></svg>