<svg width="16" height="16" viewBox="0 0 16 16" fill="none" xmlns="http://www.w3.org/2000/svg">
<path fill-rule="evenodd" clip-rule="evenodd" d="M2.07874 8.31125C1.97408 8.11725 1.97408 7.88192 2.07874 7.68792C3.34008 5.35525 5.67008 3.33325 8.00008 3.33325C10.3301 3.33325 12.6601 5.35525 13.9214 7.68859C14.0261 7.88259 14.0261 8.11792 13.9214 8.31192C12.6601 10.6446 10.3301 12.6666 8.00008 12.6666C5.67008 12.6666 3.34008 10.6446 2.07874 8.31125Z" stroke="#777986" stroke-linecap="round" stroke-linejoin="round"/>
<path d="M9.41421 6.58579C10.1953 7.36683 10.1953 8.63316 9.41421 9.41421C8.63316 10.1953 7.36683 10.1953 6.58579 9.41421C5.80474 8.63316 5.80474 7.36683 6.58579 6.58579C7.36683 5.80474 8.63316 5.80474 9.41421 6.58579" stroke="#777986" stroke-width="0.9524" stroke-linecap="round" stroke-linejoin="round"/>
</svg>
