<?xml version="1.0" standalone="no"?>
<!DOCTYPE svg PUBLIC "-//W3C//DTD SVG 20010904//EN"
 "http://www.w3.org/TR/2001/REC-SVG-20010904/DTD/svg10.dtd">
<svg version="1.0" xmlns="http://www.w3.org/2000/svg"
 width="1492.000000pt" height="700.000000pt" viewBox="0 0 1492.000000 700.000000"
 preserveAspectRatio="xMidYMid meet">

<g transform="translate(0.000000,700.000000) scale(0.100000,-0.100000)"
fill="#000000" stroke="none">
<path d="M1510 6058 c-806 -479 -1465 -871 -1466 -872 -3 -4 37 -3080 40
-3083 2 -3 217 119 477 270 261 150 643 371 849 489 2055 1182 4328 2493 4338
2503 11 10 -39 42 -259 165 -266 149 -272 152 -298 137 -365 -214 -4596 -2647
-4603 -2647 -16 0 0 731 15 746 7 6 885 514 1952 1129 1067 614 1955 1126
1973 1137 l33 20 -275 155 -275 154 -1678 -967 c-923 -531 -1693 -975 -1710
-986 l-33 -20 0 279 0 278 1465 844 c806 465 1462 848 1458 851 -21 19 -513
290 -525 289 -7 0 -672 -392 -1478 -871z"/>
<path d="M12690 5060 l0 -100 225 0 225 0 0 100 0 100 -225 0 -225 0 0 -100z"/>
<path d="M4170 3939 c-993 -572 -1978 -1140 -2190 -1261 -212 -121 -427 -245
-478 -275 l-93 -55 278 -160 c284 -164 636 -369 1075 -625 l246 -144 179 102
c98 56 295 170 438 254 441 257 1809 1044 1828 1051 16 6 17 -15 17 -343 0
-321 -1 -351 -17 -365 -15 -12 -2346 -1358 -2420 -1396 -19 -10 -145 59 -1125
625 -606 350 -1110 637 -1118 637 -21 1 -541 -297 -532 -306 14 -13 2801
-1578 2811 -1578 13 0 484 278 491 290 3 5 154 95 335 200 182 104 734 430
1228 723 l898 532 -5 105 c-3 58 -8 443 -11 855 -3 413 -8 798 -11 856 l-6
106 -217 -125 c-119 -68 -268 -155 -331 -192 -341 -201 -2417 -1393 -2426
-1393 -14 0 -504 284 -504 292 0 3 777 454 1726 1001 950 547 1733 1000 1740
1005 10 8 12 70 6 317 l-7 308 -1805 -1041z"/>
<path d="M14055 4909 c-207 -15 -331 -88 -395 -235 -44 -100 -55 -188 -55
-424 1 -309 28 -420 129 -528 80 -85 180 -120 376 -129 372 -17 543 82 606
352 27 113 27 515 1 620 -61 241 -188 334 -477 347 -47 2 -130 1 -185 -3z
m232 -285 c69 -51 93 -147 93 -369 0 -314 -45 -400 -210 -400 -128 0 -178 51
-201 205 -13 88 -7 397 10 451 17 54 52 102 91 122 50 26 177 20 217 -9z"/>
<path d="M10394 4895 c-165 -36 -233 -121 -242 -305 -8 -168 36 -274 147 -352
29 -20 138 -71 244 -113 106 -42 202 -86 215 -98 27 -25 31 -97 7 -121 -26
-25 -75 -29 -335 -24 l-248 4 -6 -85 c-4 -47 -9 -102 -12 -122 l-5 -35 88 -17
c148 -28 300 -40 448 -33 256 10 359 60 412 197 12 32 17 77 17 169 1 109 -2
131 -22 174 -52 114 -122 167 -315 242 -286 110 -297 116 -297 180 0 18 9 42
19 55 l19 24 270 0 270 0 6 70 c4 39 9 89 12 112 l6 42 -43 11 c-149 41 -519
55 -655 25z"/>
<path d="M11504 4895 c-81 -17 -133 -45 -177 -94 -50 -55 -62 -104 -62 -251 0
-105 4 -132 21 -170 51 -110 126 -162 377 -260 202 -78 227 -96 227 -160 0
-46 -18 -67 -66 -76 -20 -4 -147 -5 -284 -2 l-248 4 -6 -65 c-4 -36 -9 -91
-12 -122 l-6 -57 89 -16 c147 -27 301 -39 438 -33 233 9 338 50 397 154 57
101 61 309 7 414 -50 99 -131 150 -404 255 -82 31 -159 67 -172 80 -31 31 -32
93 -2 120 20 18 40 19 289 19 l268 0 6 80 c4 44 9 94 12 112 6 30 4 32 -38 43
-148 41 -519 55 -654 25z"/>
<path d="M6965 4877 c-89 -35 -144 -96 -165 -179 -7 -29 -10 -187 -8 -473 3
-420 3 -431 25 -471 12 -22 38 -55 58 -72 68 -60 91 -65 305 -70 177 -3 516
10 527 21 2 3 1 59 -3 126 l-7 121 -257 0 c-326 0 -305 -11 -305 157 l0 118
248 3 247 2 0 115 0 115 -250 0 -250 0 0 73 c0 95 13 141 46 155 17 8 106 12
273 12 l248 0 7 121 c4 67 5 124 1 127 -3 4 -164 8 -358 9 -262 2 -360 0 -382
-10z"/>
<path d="M7980 4883 c-30 -11 -60 -47 -65 -77 -6 -33 -45 -1017 -45 -1123 l0
-63 155 0 c117 0 155 3 155 13 0 6 7 197 15 422 8 226 15 447 15 493 0 74 2
82 19 82 11 0 21 -9 24 -22 3 -13 40 -183 83 -378 75 -341 79 -356 110 -387
l32 -33 161 0 161 0 31 28 c30 27 34 40 110 387 96 440 87 405 103 405 10 0
16 -20 20 -72 6 -78 36 -825 36 -895 l0 -43 160 0 161 0 -6 88 c-3 48 -15 313
-26 590 -11 276 -23 512 -28 525 -5 12 -19 31 -31 42 -20 18 -39 20 -230 23
-232 3 -256 -2 -285 -58 -17 -33 -117 -501 -144 -678 -26 -161 -40 -165 -60
-17 -6 50 -40 225 -76 389 -60 282 -66 301 -95 330 l-30 31 -208 2 c-114 1
-214 -1 -222 -4z"/>
<path d="M9620 4255 l0 -635 170 0 170 0 0 635 0 635 -170 0 -170 0 0 -635z"/>
<path d="M12705 4881 c-11 -5 -28 -18 -38 -29 -12 -13 -88 -253 -191 -604 -95
-321 -176 -593 -180 -606 l-7 -22 177 2 178 3 36 145 36 145 200 3 200 2 28
-117 c16 -65 33 -133 38 -150 l9 -33 175 0 c162 0 175 1 170 18 -3 9 -82 280
-176 602 -164 560 -172 586 -205 618 l-35 32 -197 -1 c-109 0 -207 -4 -218 -8z
m245 -281 c0 -17 23 -118 50 -226 28 -108 50 -198 50 -200 0 -2 -61 -4 -136
-4 -124 0 -135 1 -130 18 14 45 86 334 96 385 11 54 13 57 41 57 26 0 29 -3
29 -30z"/>
<path d="M7065 3204 c-106 -21 -135 -29 -166 -44 -53 -28 -106 -92 -123 -151
-21 -69 -21 -238 -1 -307 19 -63 95 -149 168 -190 29 -16 134 -62 235 -102
116 -46 188 -80 197 -93 25 -36 19 -92 -11 -116 -26 -20 -39 -21 -300 -21
l-272 0 -6 -27 c-3 -16 -8 -69 -11 -120 l-7 -91 54 -11 c123 -26 171 -31 339
-37 330 -13 471 31 536 164 25 51 28 69 31 182 3 110 1 132 -19 184 -27 74
-90 143 -167 184 -31 17 -133 60 -225 95 -93 36 -180 76 -193 88 -32 30 -34
97 -3 125 20 18 40 19 288 19 l266 0 10 112 10 113 -69 15 c-38 9 -101 20
-140 25 -69 9 -380 12 -421 4z"/>
<path d="M10495 3204 c-27 -2 -78 -6 -112 -10 l-63 -6 0 -639 0 -639 175 0
175 0 0 228 0 227 166 -3 c185 -4 273 7 343 43 88 45 131 114 152 246 14 91 6
264 -16 336 -32 105 -117 178 -240 204 -49 10 -483 20 -580 13z m432 -263 c53
-25 67 -64 62 -184 -4 -79 -6 -89 -32 -114 -27 -27 -31 -28 -157 -31 l-130 -4
0 176 0 176 108 0 c83 0 116 -5 149 -19z"/>
<path d="M13948 3200 c-150 -26 -232 -88 -263 -202 -27 -100 -18 -256 19 -331
51 -106 128 -156 401 -263 83 -32 160 -68 173 -81 27 -27 30 -93 6 -117 -25
-25 -45 -27 -322 -24 -256 3 -262 3 -262 -17 0 -11 -5 -65 -10 -119 -5 -55 -8
-101 -6 -103 16 -16 238 -44 386 -49 278 -10 412 17 496 102 59 59 78 125 78
269 0 146 -21 202 -103 277 -69 64 -98 79 -317 163 -185 71 -214 92 -214 151
0 46 27 71 87 80 26 4 148 4 269 1 l221 -7 7 83 c4 45 9 96 12 113 l6 31 -69
17 c-37 9 -102 21 -143 26 -89 11 -385 11 -452 0z"/>
<path d="M7950 2550 l0 -640 170 0 170 0 0 640 0 640 -170 0 -170 0 0 -640z"/>
<path d="M8641 3177 c-13 -6 -33 -24 -44 -39 -19 -26 -22 -61 -43 -605 -13
-318 -23 -588 -24 -600 0 -23 1 -23 158 -23 l158 0 12 413 c17 546 21 609 40
605 11 -2 36 -99 97 -376 57 -256 89 -382 102 -400 29 -40 74 -51 208 -51 132
0 179 11 206 49 12 16 48 160 101 403 58 266 86 377 95 377 8 0 15 -6 18 -12
2 -7 11 -204 20 -438 8 -234 18 -458 21 -497 l6 -73 154 0 154 0 0 40 c0 60
-39 1025 -44 1102 -5 77 -24 112 -68 127 -18 6 -110 11 -215 11 -201 0 -238
-7 -269 -55 -18 -27 -133 -560 -155 -717 -16 -114 -33 -116 -48 -5 -19 134
-139 684 -156 718 -27 52 -61 59 -272 59 -129 0 -196 -4 -212 -13z"/>
<path d="M11532 2643 c3 -541 3 -549 25 -589 31 -59 93 -110 154 -128 41 -13
102 -16 273 -16 206 1 411 12 423 23 2 3 1 62 -3 131 l-7 126 -234 0 c-134 0
-242 4 -253 10 -37 20 -40 59 -40 531 l0 459 -170 0 -171 0 3 -547z"/>
<path d="M12764 3180 c-63 -20 -127 -73 -156 -129 l-28 -53 0 -448 0 -448 28
-53 c31 -60 96 -111 165 -130 44 -12 644 -6 699 7 27 6 27 7 22 73 -3 36 -7
90 -10 119 l-5 52 -238 0 c-256 0 -296 6 -312 47 -5 13 -9 71 -9 129 l0 104
245 0 245 0 0 120 0 120 -245 0 -245 0 0 94 c0 149 -17 140 298 144 l261 3 5
52 c17 170 16 184 -7 192 -37 11 -679 16 -713 5z"/>
</g>
</svg>
