<svg width="20" height="21" viewBox="0 0 20 21" fill="none" xmlns="http://www.w3.org/2000/svg">
<g clip-path="url(#clip0_554_1221)">
<path d="M10 0.5C8.36719 0.5 6.97656 1.54297 6.46484 3H5C3.62109 3 2.5 4.12109 2.5 5.5V18C2.5 19.3789 3.62109 20.5 5 20.5H15C16.3789 20.5 17.5 19.3789 17.5 18V5.5C17.5 4.12109 16.3789 3 15 3H13.5352C13.0234 1.54297 11.6328 0.5 10 0.5ZM10 3C10.3315 3 10.6495 3.1317 10.8839 3.36612C11.1183 3.60054 11.25 3.91848 11.25 4.25C11.25 4.58152 11.1183 4.89946 10.8839 5.13388C10.6495 5.3683 10.3315 5.5 10 5.5C9.66848 5.5 9.35054 5.3683 9.11612 5.13388C8.8817 4.89946 8.75 4.58152 8.75 4.25C8.75 3.91848 8.8817 3.60054 9.11612 3.36612C9.35054 3.1317 9.66848 3 10 3ZM6.63281 9.45703C6.94141 8.58594 7.76953 8 8.69531 8H10.9727C12.3359 8 13.4375 9.10547 13.4375 10.4648C13.4375 11.3477 12.9648 12.1641 12.1992 12.6055L10.9375 13.3281C10.9297 13.8359 10.5117 14.25 10 14.25C9.48047 14.25 9.0625 13.832 9.0625 13.3125V12.7852C9.0625 12.4492 9.24219 12.1406 9.53516 11.9727L11.2656 10.9805C11.4492 10.875 11.5625 10.6797 11.5625 10.4688C11.5625 10.1406 11.2969 9.87891 10.9727 9.87891H8.69531C8.5625 9.87891 8.44531 9.96094 8.40234 10.0859L8.38672 10.1328C8.21484 10.6211 7.67578 10.875 7.19141 10.7031C6.70703 10.5312 6.44922 9.99219 6.62109 9.50781L6.63672 9.46094L6.63281 9.45703ZM8.75 16.75C8.75 16.4185 8.8817 16.1005 9.11612 15.8661C9.35054 15.6317 9.66848 15.5 10 15.5C10.3315 15.5 10.6495 15.6317 10.8839 15.8661C11.1183 16.1005 11.25 16.4185 11.25 16.75C11.25 17.0815 11.1183 17.3995 10.8839 17.6339C10.6495 17.8683 10.3315 18 10 18C9.66848 18 9.35054 17.8683 9.11612 17.6339C8.8817 17.3995 8.75 17.0815 8.75 16.75Z" fill="#2FB490"/>
</g>
<defs>
<clipPath id="clip0_554_1221">
<rect width="20" height="20" fill="white" transform="translate(0 0.5)"/>
</clipPath>
</defs>
</svg>
