<svg width="24" height="24" viewBox="0 0 24 24" fill="none" xmlns="http://www.w3.org/2000/svg">
<rect x="2.99625" y="2.99622" width="18.0075" height="18.0075" rx="5" stroke="#1BA38E" stroke-width="1.5" stroke-linecap="round" stroke-linejoin="round"/>
<path d="M16.2518 12C16.2518 12.1381 16.1398 12.2501 16.0017 12.2501C15.8635 12.2501 15.7516 12.1381 15.7516 12C15.7516 11.8618 15.8635 11.7499 16.0017 11.7499V11.7499C16.1398 11.7499 16.2518 11.8618 16.2518 12" stroke="#1BA38E" stroke-width="1.5" stroke-linecap="round" stroke-linejoin="round"/>
<path d="M8.24844 12C8.24844 12.1381 8.13646 12.2501 7.99833 12.2501C7.8602 12.2501 7.74823 12.1381 7.74823 12C7.74823 11.8618 7.8602 11.7499 7.99833 11.7499V11.7499C8.13646 11.7499 8.24844 11.8618 8.24844 12" stroke="#1BA38E" stroke-width="1.5" stroke-linecap="round" stroke-linejoin="round"/>
<path d="M12.2501 12C12.2501 12.1381 12.1381 12.2501 12 12.2501C11.8619 12.2501 11.7499 12.1381 11.7499 12C11.7499 11.8618 11.8619 11.7499 12 11.7499V11.7499C12.1381 11.7499 12.2501 11.8618 12.2501 12" stroke="#1BA38E" stroke-width="1.5" stroke-linecap="round" stroke-linejoin="round"/>
</svg>
