<svg width="16" height="17" viewBox="0 0 16 17" fill="none" xmlns="http://www.w3.org/2000/svg">
<path d="M6.45654 6.95654C6.61456 6.27551 7.23485 5.80331 7.93338 5.8323C8.71515 5.789 9.38535 6.38472 9.434 7.16619C9.434 8.16921 8.00007 8.50007 8.00007 9.16702" stroke="#1BA38E" stroke-linecap="round" stroke-linejoin="round"/>
<path d="M8.08359 11.0013C8.08353 11.0473 8.0462 11.0846 8.00018 11.0846C7.95417 11.0845 7.91687 11.0472 7.91685 11.0012C7.91683 10.9552 7.9541 10.9179 8.00011 10.9178C8.02226 10.9178 8.04351 10.9266 8.05917 10.9422C8.07483 10.9579 8.08362 10.9792 8.08359 11.0013" stroke="#1BA38E" stroke-linecap="round" stroke-linejoin="round"/>
<path fill-rule="evenodd" clip-rule="evenodd" d="M3.08566 11.9404C1.29693 9.38727 1.7566 5.89039 4.1444 3.88625C6.5322 1.88212 10.0558 2.03573 12.2602 4.24006C14.4645 6.44439 14.6181 9.96801 12.614 12.3558C10.6098 14.7436 7.11294 15.2033 4.55979 13.4146L2.6645 13.8357L3.08566 11.9404Z" stroke="#1BA38E" stroke-linecap="round" stroke-linejoin="round"/>
</svg>
