<svg width="148" height="39" viewBox="0 0 148 39" fill="none" xmlns="http://www.w3.org/2000/svg">
<circle cx="19.5" cy="19.5" r="18.5" stroke="#2FB490" stroke-width="2"/>
<circle cx="128.5" cy="19.5" r="18.5" stroke="#B3B5BD" stroke-width="2"/>
<path d="M16.576 15.4V13.336H20.432V25H18.128V15.4H16.576Z" fill="#404252"/>
<path d="M124.958 22.472C125.982 21.6187 126.798 20.9093 127.406 20.344C128.014 19.768 128.521 19.1707 128.926 18.552C129.332 17.9333 129.534 17.3253 129.534 16.728C129.534 16.184 129.406 15.7573 129.15 15.448C128.894 15.1387 128.5 14.984 127.966 14.984C127.433 14.984 127.022 15.1653 126.734 15.528C126.446 15.88 126.297 16.3653 126.286 16.984H124.11C124.153 15.704 124.532 14.7333 125.246 14.072C125.972 13.4107 126.889 13.08 127.998 13.08C129.214 13.08 130.148 13.4053 130.798 14.056C131.449 14.696 131.774 15.544 131.774 16.6C131.774 17.432 131.55 18.2267 131.102 18.984C130.654 19.7413 130.142 20.4027 129.566 20.968C128.99 21.5227 128.238 22.1947 127.31 22.984H132.03V24.84H124.126V23.176L124.958 22.472Z" fill="#404252"/>
<line x1="44" y1="19.5" x2="104" y2="19.5" stroke="#D2D4DA"/>
</svg>
