<svg width="78" height="79" viewBox="0 0 78 79" fill="none" xmlns="http://www.w3.org/2000/svg">
<path d="M55.3147 2.85961L47.9331 10.2412L67.7597 30.0678L75.1413 22.6862C78.9541 18.8734 78.9541 12.6966 75.1413 8.88384L69.1323 2.85961C65.3195 -0.953202 59.1428 -0.953202 55.3299 2.85961H55.3147ZM44.4863 13.688L8.93568 49.2539C7.34955 50.84 6.19046 52.8074 5.54991 54.9578L0.150967 73.305C-0.230314 74.6014 0.120465 75.9893 1.06604 76.9348C2.01162 77.8804 3.39948 78.2312 4.68058 77.8652L23.0278 72.4662C25.1782 71.8257 27.1457 70.6666 28.7318 69.0805L64.3129 33.5146L44.4863 13.688Z" fill="#D2D4DA"/>
</svg>
