<svg width="16" height="17" viewBox="0 0 16 17" fill="none" xmlns="http://www.w3.org/2000/svg">
<path d="M8.62666 7.87329L3.91333 12.5866" stroke="#1BA38E" stroke-linecap="round" stroke-linejoin="round"/>
<path d="M4.42197 9.16614L2.1133 8.62081C1.8593 8.56081 1.76997 8.24547 1.95397 8.06081L3.78997 6.22481C3.9133 6.10147 4.08064 6.03081 4.25597 6.02947L6.32597 6.01147" stroke="#1BA38E" stroke-linecap="round" stroke-linejoin="round"/>
<path fill-rule="evenodd" clip-rule="evenodd" d="M13.2528 6.48349L13.7915 3.89149C13.9381 3.18616 13.3141 2.56216 12.6088 2.70883L10.0168 3.24749C9.25346 3.40616 8.55346 3.78416 8.0028 4.33549L5.87613 6.46149C5.0648 7.27283 4.5368 8.32483 4.37013 9.46016L4.3628 9.50883C4.25746 10.2335 4.50013 10.9648 5.01746 11.4828V11.4828C5.5348 12.0002 6.2668 12.2428 6.99146 12.1368L7.04013 12.1295C8.17546 11.9635 9.22746 11.4348 10.0388 10.6235L12.1648 8.49749C12.7161 7.94683 13.0941 7.24683 13.2528 6.48349V6.48349Z" stroke="#1BA38E" stroke-linecap="round" stroke-linejoin="round"/>
<path d="M8.93335 3.64282C10.474 4.69349 11.8067 6.02616 12.8573 7.56682" stroke="#1BA38E" stroke-linecap="round" stroke-linejoin="round"/>
<path d="M7.33325 12.0781L7.87859 14.3867C7.93859 14.6407 8.25392 14.7301 8.43859 14.5461L10.2746 12.7101C10.3979 12.5867 10.4686 12.4194 10.4699 12.2441L10.4879 10.1741" stroke="#1BA38E" stroke-linecap="round" stroke-linejoin="round"/>
</svg>
