<svg width="24" height="24" viewBox="0 0 24 24" fill="none" xmlns="http://www.w3.org/2000/svg">
<path d="M10.9997 6.998H3.99675C3.44432 6.99781 2.99654 6.55002 2.99634 5.99759V3.99675C2.99654 3.44432 3.44432 2.99654 3.99675 2.99634H10.9997" stroke="#404252" stroke-width="1.5" stroke-linecap="round" stroke-linejoin="round"/>
<path fill-rule="evenodd" clip-rule="evenodd" d="M5.24728 14.5013H3.74665C3.33233 14.5011 2.99649 14.1653 2.99634 13.7509V12.2503C2.99649 11.836 3.33233 11.5001 3.74665 11.5H5.24728C5.6616 11.5001 5.99744 11.836 5.99759 12.2503V13.7509C5.99744 14.1653 5.6616 14.5011 5.24728 14.5013Z" stroke="#404252" stroke-width="1.5" stroke-linecap="round" stroke-linejoin="round"/>
<path d="M9.22095 13.0005H21.0039" stroke="#404252" stroke-width="1.5" stroke-linecap="round" stroke-linejoin="round"/>
<path fill-rule="evenodd" clip-rule="evenodd" d="M5.24728 21.0039H3.74665C3.33233 21.0038 2.99649 20.6679 2.99634 20.2536V18.753C2.99649 18.3387 3.33233 18.0028 3.74665 18.0027H5.24728C5.6616 18.0028 5.99744 18.3387 5.99759 18.753V20.2536C5.99744 20.6679 5.6616 21.0038 5.24728 21.0039Z" stroke="#404252" stroke-width="1.5" stroke-linecap="round" stroke-linejoin="round"/>
<path d="M9.22095 19.5031H21.0039" stroke="#404252" stroke-width="1.5" stroke-linecap="round" stroke-linejoin="round"/>
<circle cx="17.0022" cy="4.9971" r="3.00125" stroke="#404252" stroke-width="1.5" stroke-linecap="round" stroke-linejoin="round"/>
<path d="M21.0038 8.99888L19.1238 7.1189" stroke="#404252" stroke-width="1.5" stroke-linecap="round" stroke-linejoin="round"/>
</svg>
