<svg width="96" height="96" viewBox="0 0 96 96" fill="none" xmlns="http://www.w3.org/2000/svg">
<path d="M68 12H72C78.628 12 84 17.372 84 24V72C84 78.628 78.628 84 72 84H24C17.372 84 12 78.628 12 72V67.944" stroke="#B3B5BD" stroke-width="6" stroke-linecap="round" stroke-linejoin="round"/>
<path fill-rule="evenodd" clip-rule="evenodd" d="M40 22.548C24.7 22.548 12 30.356 12 48.592V52.252C17.176 40.276 27.92 39.056 40 39.056V46.6C40 49.204 43.088 50.572 45.016 48.824L63.016 32.508C64.36 31.292 64.324 29.172 62.944 27.996L44.944 12.72C42.992 11.064 40 12.448 40 15.004V22.548Z" stroke="#B3B5BD" stroke-width="6" stroke-linecap="round" stroke-linejoin="round"/>
</svg>
