<svg width="18" height="18" viewBox="0 0 18 18" fill="none" xmlns="http://www.w3.org/2000/svg">
<path fill-rule="evenodd" clip-rule="evenodd" d="M5.208 3.75L3.792 3.75C3.35475 3.75 3 4.10475 3 4.542L3 10.083C3 10.5203 3.35475 10.875 3.792 10.875L5.208 10.875C5.64525 10.875 6 10.5203 6 10.083L6 4.542C6 4.10475 5.64525 3.75 5.208 3.75V3.75Z" stroke="#FF9393" stroke-width="1.125" stroke-linecap="round" stroke-linejoin="round"/>
<path d="M6 10.0711L8.73675 13.6343C9.246 14.2981 10.2405 14.3146 10.7722 13.6688V13.6688C10.971 13.4281 11.079 13.1251 11.079 12.8131L11.079 10.3598L13.401 10.3598C13.8518 10.3598 14.2725 10.1348 14.523 9.76057L14.7698 9.39232C14.991 9.06157 15.0555 8.64982 14.9453 8.26807L13.926 4.72657C13.7595 4.14832 13.2308 3.75007 12.6293 3.75007L7.9125 3.75007C7.5375 3.75007 7.179 3.90607 6.924 4.18057L6 5.17507" stroke="#FF9393" stroke-width="1.125" stroke-linecap="round" stroke-linejoin="round"/>
</svg>
