<svg width="12" height="17" viewBox="0 0 12 17" fill="none" xmlns="http://www.w3.org/2000/svg">
<path d="M8 0.5V4.5H12L8 0.5Z" fill="#1BA38E"/>
<path d="M8 5.5C7.44688 5.5 7 5.05313 7 4.5V0.5H2C0.896875 0.5 0 1.39688 0 2.5V14.5C0 15.6031 0.896875 16.5 2 16.5H10C11.1031 16.5 12 15.6031 12 14.5V5.5H8ZM2.5 2.5H4.5C4.775 2.5 5 2.725 5 3C5 3.275 4.775 3.5 4.5 3.5H2.5C2.225 3.5 2 3.275 2 3C2 2.725 2.225 2.5 2.5 2.5ZM2 5C2 4.725 2.225 4.5 2.5 4.5H4.5C4.775 4.5 5 4.725 5 5C5 5.275 4.775 5.5 4.5 5.5H2.5C2.225 5.5 2 5.275 2 5ZM8.91406 11.4638C8.98938 11.5378 9.01969 11.6459 8.99187 11.7481C8.96406 11.8503 8.88375 11.9303 8.78156 11.9559L8.02219 12.1478L8.23469 12.9009C8.26375 13.0031 8.23469 13.1122 8.16063 13.1866C8.08656 13.2606 7.97719 13.2897 7.875 13.2606L7.12187 13.0481L6.93 13.8075C6.90313 13.9097 6.82438 13.9897 6.72219 14.0178C6.62 14.0456 6.51187 14.0153 6.43781 13.94L5.89125 13.3788L5.34469 13.94C5.27063 14.0153 5.1625 14.0456 5.06031 14.0178C4.95812 13.99 4.87813 13.9097 4.8525 13.8075L4.66062 13.0481L3.9075 13.2606C3.80531 13.2897 3.69625 13.2606 3.62188 13.1866C3.54781 13.1125 3.51875 13.0031 3.54781 12.9009L3.76031 12.1478L3.00094 11.9559C2.89875 11.9291 2.8175 11.8503 2.79063 11.7481C2.76375 11.6459 2.79313 11.5369 2.86969 11.4638L3.43094 10.9172L2.86969 10.3706C2.79313 10.2978 2.76281 10.1897 2.79063 10.0875C2.81844 9.98531 2.89875 9.90531 3.00094 9.87969L3.76031 9.68656L3.54781 8.93344C3.51875 8.83125 3.54781 8.72219 3.62188 8.64781C3.69594 8.57375 3.80531 8.54469 3.9075 8.57375L4.66062 8.78625L4.8525 8.02688C4.87937 7.92469 4.95812 7.84344 5.06031 7.81656C5.1625 7.78969 5.27156 7.81906 5.34469 7.89563L5.89125 8.45688L6.43781 7.89563C6.51062 7.81906 6.61875 7.78875 6.72094 7.81656C6.82313 7.84438 6.90313 7.92469 6.92875 8.02688L7.12187 8.78625L7.875 8.57375C7.97719 8.54469 8.08625 8.57375 8.16063 8.64781C8.23469 8.72188 8.26375 8.83125 8.23469 8.93344L8.02219 9.68656L8.78156 9.87844C8.88375 9.90531 8.96375 9.98406 8.99187 10.0863C9.01969 10.1884 8.98938 10.2966 8.91406 10.3706L8.35281 10.9172L8.91406 11.4638Z" fill="#1BA38E"/>
</svg>
