<svg width="189" height="140" viewBox="0 0 189 140" fill="none" xmlns="http://www.w3.org/2000/svg">
<g clip-path="url(#clip0_687_1039)">
<path d="M187.341 8.69769H67.4899C67.2267 8.69189 67.018 8.47422 67.0238 8.21151C67.0294 7.95697 67.2348 7.75196 67.4899 7.74634H187.341C187.604 7.75214 187.813 7.96981 187.807 8.23252C187.801 8.48706 187.596 8.69207 187.341 8.69769Z" fill="#E6E6E6"/>
<path d="M88.5967 57.5793H136.951C137.074 57.5793 137.173 57.6788 137.173 57.8015V85.8623C137.173 85.985 137.074 86.0844 136.951 86.0844H88.5967V57.5793Z" fill="#E6E6E6"/>
<path d="M136.894 86.236L88.533 57.7945L88.6603 57.364L137.021 85.8055C137.14 85.8406 137.208 85.9654 137.173 86.0843C137.138 86.2032 137.013 86.2711 136.894 86.236Z" fill="white"/>
<path d="M88.6603 86.2997L88.533 85.8692L136.894 57.4277C137.013 57.3926 137.138 57.4605 137.173 57.5794C137.208 57.6982 137.14 57.8231 137.021 57.8582L88.6603 86.2997Z" fill="white"/>
<path d="M131.459 29.5083H94.2565C93.675 29.5083 93.2036 29.9788 93.2036 30.5591V30.5591C93.2036 31.1394 93.675 31.6099 94.2565 31.6099H131.459C132.04 31.6099 132.512 31.1394 132.512 30.5591C132.512 29.9788 132.04 29.5083 131.459 29.5083Z" fill="#E6E6E6"/>
<path d="M136.46 36.0681H89.2555C88.674 36.0681 88.2026 36.5386 88.2026 37.1189V37.1189C88.2026 37.6993 88.674 38.1697 89.2555 38.1697H136.46C137.042 38.1697 137.513 37.6993 137.513 37.1189C137.513 36.5386 137.042 36.0681 136.46 36.0681Z" fill="#E6E6E6"/>
<path d="M136.46 42.6282H89.2555C88.674 42.6282 88.2026 43.0986 88.2026 43.679C88.2026 44.2593 88.674 44.7298 89.2555 44.7298H136.46C137.042 44.7298 137.513 44.2593 137.513 43.679C137.513 43.0986 137.042 42.6282 136.46 42.6282Z" fill="#1BA38E"/>
<path d="M181.223 64.7732C181.219 72.8854 176.083 80.1107 168.412 82.7937C168.249 82.852 168.086 82.905 167.921 82.9563C157.86 86.1664 147.097 80.6286 143.88 70.5873C140.664 60.546 146.212 49.8036 156.274 46.5935C166.335 43.3834 177.098 48.9212 180.315 58.9625C180.916 60.8409 181.223 62.8011 181.223 64.7732Z" fill="#E6E6E6"/>
<path d="M136.451 45.1513C136.374 46.0361 137.031 46.8156 137.917 46.8924C138.012 46.9006 138.107 46.9005 138.201 46.8919L140.556 52.1004L142.147 49.5907L139.666 45.0294C139.527 44.1474 138.698 43.5449 137.814 43.6837C137.075 43.7999 136.511 44.4066 136.451 45.1513Z" fill="#EAC6C6"/>
<path d="M159.661 64.7662C159.627 64.6122 159.583 64.4606 159.53 64.312C159.192 63.3547 158.505 62.56 157.605 62.0871C157.584 62.0747 157.561 62.0623 157.54 62.0517L146.781 56.6033L145.826 54.746L141.97 47.2476L141.024 47.5286L138.79 48.1913L138.738 48.2054L142.443 60.6468L143.293 61.2971L152.92 68.6453L153.233 68.8856C154.833 70.1041 157.084 69.9718 158.53 68.5746C158.674 68.4366 158.807 68.2877 158.928 68.1292C159.662 67.1732 159.931 65.9402 159.661 64.7662Z" fill="#1BA38E"/>
<path d="M165.642 78.4305L165.586 76.3805L165.423 70.4355C166.012 66.6306 166.43 66.2083 163.587 63.6069C163.367 63.5599 163.177 63.4225 163.064 63.2287C162.806 62.702 163.427 61.8078 162.891 60.4312L158.657 60.6733L157.605 62.0871L153.373 67.7776C153.207 68.0589 153.056 68.3485 152.92 68.6453C151.108 72.5721 153.564 74.6592 153.756 75.0179L154.928 78.7026L155.574 82.276L155.783 82.7726L156.373 82.9882C160.134 84.1606 164.166 84.1495 167.921 82.9564C167.289 81.387 166.527 79.8731 165.642 78.4305Z" fill="#1BA38E"/>
<path d="M173.843 92.8822C174.205 92.071 173.84 91.1204 173.027 90.7589C172.94 90.7204 172.85 90.6896 172.758 90.6668L172.236 84.9763L169.912 86.8303L170.764 91.9499C170.607 92.8289 171.194 93.6686 172.074 93.8253C172.811 93.9565 173.542 93.5666 173.843 92.8822Z" fill="#EAC6C6"/>
<path d="M165.745 64.98C165.131 64.0528 164.161 63.4193 163.064 63.2287C162.829 63.1862 162.591 63.1649 162.352 63.165C161.557 63.1652 160.779 63.3994 160.116 63.8384C159.906 63.9769 159.709 64.1355 159.53 64.312C157.921 65.8675 157.88 68.4304 159.438 70.0364L159.44 70.0378L165.586 76.3804L167.826 78.692L168.412 82.7937L169.313 89.1046L170.298 89.147L172.628 89.2495L172.681 89.2512L173.069 80.408L173.249 76.285L165.745 64.98Z" fill="#1BA38E"/>
<path d="M157.346 50.7305C155.849 53.675 156.827 57.0857 159.605 58.8792C162.608 60.8186 166.508 60.394 167.769 56.625C169.174 52.4279 168.02 50.6274 165.511 48.4764C162.57 45.9556 158.963 47.5491 157.346 50.7305Z" fill="#5B5D6B"/>
<path d="M164.714 57.29C163.127 59.3669 160.153 59.7661 158.072 58.1816C155.994 56.5993 155.592 53.6362 157.173 51.5592L157.214 51.5053C158.848 49.4644 161.83 49.1317 163.875 50.7623C165.874 52.3557 166.244 55.2443 164.713 57.2891L164.714 57.29Z" fill="#EAC6C6"/>
<path d="M155.896 50.2539C156.666 50.9853 157.605 51.5162 158.629 51.7998C158.834 51.5627 159.078 51.3613 159.349 51.2039C159.219 51.4739 159.13 51.7616 159.085 52.0576C159.542 53.004 161.408 53.6843 163.192 54.3801L165.554 50.219L162.427 48.4506C159.915 46.7169 156.957 47.4568 155.896 50.2539Z" fill="#5B5D6B"/>
<path d="M167.336 48.4815C167.8 48.3111 168.318 48.3866 168.713 48.6822C169.094 48.971 169.402 49.3447 169.612 49.7733C169.995 50.4668 170.269 51.2142 170.427 51.9901C170.562 52.6612 170.539 53.4727 169.936 53.8229C169.432 54.1152 168.712 53.9312 168.25 53.5411C167.821 53.1319 167.496 52.6269 167.301 52.0676C167.075 51.5323 166.861 50.9774 166.46 50.5328L166.877 50.7271C166.745 50.3278 166.684 49.9088 166.695 49.4886C166.715 49.0631 166.959 48.6798 167.336 48.4815Z" fill="#5B5D6B"/>
<path d="M161.928 49.0269L165.283 50.924C167.172 51.9923 167.835 54.3866 166.765 56.2719C165.214 59.0042 161.835 60.1109 158.963 58.8275L162.028 56.1266L157.87 58.2413L156.982 57.7392C161.442 56.9299 162.302 53.4382 161.928 49.0269Z" fill="#5B5D6B"/>
<path d="M168.265 52.3613C168.83 53.0173 169.714 53.2723 170.511 53.6137C173.369 54.8647 175.423 57.4429 176.001 60.503C176.221 61.7308 176.192 63.0017 176.541 64.1986C176.887 65.3954 177.744 66.5697 178.974 66.7774C179.806 66.9193 180.641 66.5985 181.424 66.2818C181.855 66.1091 182.285 65.9356 182.716 65.7615C182.267 64.6366 181.818 63.5117 181.37 62.3868C182.09 63.4484 182.927 64.4259 183.866 65.3009C185.409 64.6798 186.954 64.0587 188.5 63.4377C184.696 63.4521 185.345 59.7668 184.494 56.0692C184.027 54.0374 180.043 52.6616 179.263 50.7284C178.043 47.6977 174.592 46.2277 171.556 47.445C170.247 47.9696 169.169 48.9428 168.515 50.1896C167.734 50.5002 167.711 51.7135 168.265 52.3613Z" fill="#5B5D6B"/>
<path d="M57.77 87.9593C57.0574 87.0586 57.2112 85.7518 58.1137 85.0405C58.2011 84.9716 58.2939 84.9099 58.3912 84.8558L57.3049 74.5551L60.0858 73.5547L61.2864 85.7984C61.769 86.8383 61.3156 88.0719 60.2736 88.5535C59.4018 88.9566 58.3668 88.7109 57.77 87.9593Z" fill="#EAC6C6"/>
<path d="M56.2828 50.1938C56.2828 50.1938 60.7972 52.3922 60.8119 54.9766C60.8265 57.561 61.2005 59.8985 60.8472 60.8984C60.4939 61.8984 61.7449 69.1669 61.1593 69.8867C60.5737 70.6065 61.7802 70.9749 61.1462 72.2068C60.5122 73.4386 60.2315 73.6705 60.4639 73.9507C60.6962 74.2308 61.0375 79.5709 61.0375 79.5709L57.3175 80.0352L53.3604 62.7994L56.2828 50.1938Z" fill="#404252"/>
<path d="M34.8143 89.0056C35.6603 88.2283 35.7149 86.9137 34.9361 86.0693C34.8606 85.9875 34.7787 85.9119 34.6912 85.8431L37.3912 75.8422L34.8031 74.4167L31.6833 86.3184C31.0424 87.2694 31.2953 88.5588 32.2481 89.1984C33.0454 89.7336 34.1063 89.6539 34.8143 89.0056Z" fill="#EAC6C6"/>
<path d="M42.2491 51.9468C42.2491 51.9468 37.4439 53.4072 37.0211 55.957C36.5983 58.5067 35.8598 60.7562 36.0507 61.7992C36.2415 62.8423 33.8579 69.823 34.3224 70.6259C34.787 71.4289 33.5374 71.6028 33.9689 72.919C34.4003 74.2352 34.6409 74.5084 34.3672 74.7485C34.0935 74.9886 32.9128 80.2082 32.9128 80.2082L36.5129 81.252L43.1436 64.8545L42.2491 51.9468Z" fill="#404252"/>
<path d="M60.7028 133.749L63.9079 133.749L65.4327 121.411L60.7024 121.411L60.7028 133.749Z" fill="#EAC6C6"/>
<path d="M64.9745 134.037V131.869L64.1319 131.92L60.702 132.123L59.9082 132.171L59.3013 139.434L59.2688 139.824H61.5446L61.6177 139.437L61.9482 137.679L62.8017 139.437L62.9886 139.824H69.0222C69.7694 139.819 70.3736 139.215 70.3768 138.469C70.6315 137.282 65.6139 134.716 64.9745 134.037Z" fill="#5B5D6B"/>
<path d="M23.1533 130.267L25.941 131.846L33.368 121.865L29.2538 119.536L23.1533 130.267Z" fill="#EAC6C6"/>
<path d="M26.7277 132.62L27.7979 130.736L27.0447 130.365L23.9588 128.854L23.2436 128.502L19.7297 133.637L18.9033 134.843L19.838 135.373L20.8811 135.965L22.2953 134.299L22.1382 136.676L27.0664 139.469H27.0691L27.3861 139.648C28.0378 140.015 28.8646 139.787 29.2338 139.137C30.0412 138.228 26.9472 133.529 26.7277 132.62Z" fill="#5B5D6B"/>
<path d="M44.7971 73.1834C37.6935 73.4382 35.197 102.344 37.3662 102.868L27.2429 121.697L41.652 128.144L51.1262 95.3119L52.7052 107.394L50.5998 126.568L59.9136 128.816L66.3557 128.357C64.6818 105.502 60.5023 81.3969 57.0386 72.0728L44.7971 73.1834Z" fill="#5B5D6B"/>
<path d="M41.5362 75.2101L41.4895 75.3856C46.03 77.9068 49.1305 77.3674 54.0938 75.8413L57.7172 75.0813C58.5081 74.052 57.8635 73.0453 56.9873 72.065L59.1595 54.2339C59.1449 51.9238 57.2566 50.0628 54.9419 50.0774C54.8468 50.078 54.7517 50.0818 54.6568 50.0889L51.3939 47.6765L46.7489 47.8365L43.6418 51.2618L41.7855 51.9237L40.3432 52.4369C40.0517 52.699 39.7334 53.0011 39.4285 53.3343L41.7098 66.8845L42.6802 70.9362C41.3794 72.4165 40.6627 73.8614 41.5362 75.2101Z" fill="#404252"/>
<path d="M15.1839 137.586C11.8039 137.184 8.78609 135.281 6.97115 132.407C5.80579 130.521 5.20448 128.281 4.62295 126.115C4.45362 125.484 4.27865 124.833 4.09336 124.204C3.66474 122.799 4.1356 121.275 5.28262 120.355C6.39148 119.428 7.95428 119.267 9.22958 119.949L9.36565 120.021L9.60409 125.369C9.9574 124.653 10.7327 123.034 11.347 121.418L11.3985 121.283L11.5162 121.367C12.7511 122.253 13.8694 123.29 14.8446 124.454C18.3301 128.683 19.7753 134.228 18.7962 139.616L18.7665 139.775L15.1839 137.586Z" fill="#FAFAFA"/>
<path d="M55.6776 44.6347L55.6821 44.6335C56.188 44.4999 56.4896 43.9823 56.3557 43.4774L55.0062 38.375C54.7653 37.4606 54.3426 36.6039 53.7633 35.8558C52.6305 34.3965 50.9771 33.4299 49.1478 33.1573C48.2036 33.0176 47.2409 33.0703 46.3176 33.3119C42.5405 34.3007 41.4856 35.5474 41.2724 41.9278C41.0592 48.3081 42.624 47.038 42.624 47.038C42.6564 47.161 42.7133 47.2763 42.7912 47.3769C42.9438 47.573 43.1664 47.7027 43.4125 47.7389C43.5388 47.7573 43.6674 47.7503 43.7909 47.7181C48.5077 47.2335 53.2846 46.7923 55.6783 44.6345L55.6776 44.6347Z" fill="#5B5D6B"/>
<path d="M44.5875 39.2479C43.8953 42.0365 45.5992 44.8572 48.3933 45.548C49.7325 45.8791 51.1485 45.6669 52.3311 44.9577C53.5134 44.2538 54.3641 43.1069 54.6936 41.7729C55.3835 38.9837 53.6772 36.1644 50.8825 35.4758C49.5467 35.1467 48.1347 35.3581 46.9545 36.0639C45.7707 36.7668 44.9182 37.9134 44.5875 39.2479Z" fill="#EAC6C6"/>
<path d="M56.7375 38.3632C56.5469 37.64 56.2126 36.9625 55.7545 36.3708C55.1037 34.7515 54.0827 33.4427 52.1047 34.2372C51.3628 34.1278 50.6064 34.1684 49.8805 34.3567L48.8559 34.6212C48.8444 34.6241 48.8329 34.6271 48.8214 34.6302C45.842 35.417 44.0659 38.4654 44.8543 41.439L44.8813 41.5412L47.0483 40.9796L47.2421 38.7271L47.9351 40.7503L49.0544 40.4607L49.152 39.3243L49.5016 40.3443C51.624 41.1672 54.0838 40.3508 56.7636 38.4658L56.7375 38.3632Z" fill="#5B5D6B"/>
<path d="M51.7657 45.4931C51.8432 45.6491 51.8753 45.8237 51.8583 45.9971C51.8502 46.0856 51.8297 46.1726 51.7974 46.2555C51.7697 46.3261 51.7337 46.3933 51.6902 46.4555C51.5611 46.6394 51.3706 46.7713 51.1529 46.8277C51.1393 46.8311 51.1257 46.8343 51.112 46.8372C51.0983 46.8402 51.0845 46.8428 51.0706 46.8451C51.0566 46.8476 51.0426 46.8497 51.0285 46.8513C51.0145 46.853 51.0003 46.8544 50.986 46.8556L50.1808 46.9187L48.5258 44.9411L49.0725 47.0079L45.4134 47.3005L43.0938 38.53L48.9571 37.0154L48.8567 37.2213C48.5251 37.911 48.3906 38.6786 48.4679 39.4396C48.55 40.2094 48.7636 40.9595 49.0996 41.6574C49.4339 42.3649 49.8355 43.0388 50.2988 43.6698C50.7061 44.2297 51.1453 44.7656 51.6143 45.275C51.6747 45.3403 51.7257 45.4137 51.7657 45.4931Z" fill="#5B5D6B"/>
<path d="M80.7948 3.84074C81.8343 3.84074 82.677 2.98096 82.677 1.92037C82.677 0.859779 81.8343 0 80.7948 0C79.7553 0 78.9126 0.859779 78.9126 1.92037C78.9126 2.98096 79.7553 3.84074 80.7948 3.84074Z" fill="#404252"/>
<path d="M87.297 3.84074C88.3365 3.84074 89.1792 2.98096 89.1792 1.92037C89.1792 0.859779 88.3365 0 87.297 0C86.2575 0 85.4148 0.859779 85.4148 1.92037C85.4148 2.98096 86.2575 3.84074 87.297 3.84074Z" fill="#404252"/>
<path d="M93.7992 3.84074C94.8387 3.84074 95.6814 2.98096 95.6814 1.92037C95.6814 0.859779 94.8387 0 93.7992 0C92.7597 0 91.917 0.859779 91.917 1.92037C91.917 2.98096 92.7597 3.84074 93.7992 3.84074Z" fill="#404252"/>
<path d="M101.213 3.43807C101.155 3.43807 101.098 3.41572 101.054 3.37125L99.7842 2.07554C99.6995 1.9892 99.6995 1.85123 99.7842 1.7649L101.054 0.469293C101.14 0.381654 101.281 0.380243 101.369 0.465823C101.457 0.551618 101.458 0.692296 101.372 0.779935L100.255 1.92022L101.372 3.06061C101.458 3.14825 101.457 3.28893 101.369 3.37472C101.326 3.41702 101.269 3.43807 101.213 3.43807Z" fill="#404252"/>
<path d="M103.347 3.43823C103.291 3.43823 103.235 3.41719 103.192 3.37489C103.104 3.28909 103.102 3.14852 103.188 3.06077L104.306 1.92038L103.188 0.780097C103.102 0.692459 103.104 0.551781 103.192 0.465986C103.279 0.380082 103.42 0.38171 103.506 0.469455L104.776 1.76506C104.861 1.8514 104.861 1.98937 104.776 2.0757L103.506 3.37142C103.463 3.41589 103.405 3.43823 103.347 3.43823Z" fill="#404252"/>
<path d="M169.787 0.222412H167.426C167.157 0.222412 166.938 0.4401 166.938 0.708887V3.06796C166.938 3.33674 167.157 3.55443 167.426 3.55443H169.787C170.057 3.55443 170.277 3.33674 170.277 3.06796V0.708887C170.277 0.4401 170.057 0.222412 169.787 0.222412Z" fill="#404252"/>
<path d="M164.001 0.222412H161.639C161.37 0.222412 161.152 0.4401 161.152 0.708887V3.06796C161.152 3.33674 161.37 3.55443 161.639 3.55443H164.001C164.27 3.55443 164.49 3.33674 164.49 3.06796V0.708887C164.49 0.4401 164.27 0.222412 164.001 0.222412Z" fill="#404252"/>
<path d="M175.241 0.333496H172.879C172.61 0.333496 172.392 0.551184 172.392 0.819971V3.17904C172.392 3.44783 172.61 3.66552 172.879 3.66552H175.241C175.51 3.66552 175.73 3.44783 175.73 3.17904V0.819971C175.73 0.551184 175.51 0.333496 175.241 0.333496Z" fill="#404252"/>
<path d="M139.646 1.23071H120.77C120.441 1.23071 120.176 1.49728 120.176 1.82382C120.176 2.15037 120.441 2.41692 120.77 2.41692H139.646C139.974 2.41692 140.241 2.15035 140.241 1.82382C140.241 1.49729 139.974 1.23071 139.646 1.23071Z" fill="#404252"/>
</g>
<defs>
<clipPath id="clip0_687_1039">
<rect width="188" height="140" fill="white" transform="translate(0.5)"/>
</clipPath>
</defs>
</svg>
