<svg width="16" height="16" viewBox="0 0 16 16" fill="none" xmlns="http://www.w3.org/2000/svg">
<path d="M10 0V4H14L10 0Z" fill="#1BA38E"/>
<path d="M10 5C9.44688 5 9 4.55313 9 4V0H4C2.89688 0 2 0.896875 2 2V14C2 15.1031 2.89688 16 4 16H12C13.1031 16 14 15.1031 14 14V5H10ZM4.5 2H6.5C6.775 2 7 2.225 7 2.5C7 2.775 6.775 3 6.5 3H4.5C4.225 3 4 2.775 4 2.5C4 2.225 4.225 2 4.5 2ZM4 4.5C4 4.225 4.225 4 4.5 4H6.5C6.775 4 7 4.225 7 4.5C7 4.775 6.775 5 6.5 5H4.5C4.225 5 4 4.775 4 4.5ZM10.9141 10.9638C10.9894 11.0378 11.0197 11.1459 10.9919 11.2481C10.9641 11.3503 10.8838 11.4303 10.7816 11.4559L10.0222 11.6478L10.2347 12.4009C10.2638 12.5031 10.2347 12.6122 10.1606 12.6866C10.0866 12.7606 9.97719 12.7897 9.875 12.7606L9.12187 12.5481L8.93 13.3075C8.90313 13.4097 8.82438 13.4897 8.72219 13.5178C8.62 13.5456 8.51187 13.5153 8.43781 13.44L7.89125 12.8788L7.34469 13.44C7.27063 13.5153 7.1625 13.5456 7.06031 13.5178C6.95812 13.49 6.87813 13.4097 6.8525 13.3075L6.66062 12.5481L5.9075 12.7606C5.80531 12.7897 5.69625 12.7606 5.62188 12.6866C5.54781 12.6125 5.51875 12.5031 5.54781 12.4009L5.76031 11.6478L5.00094 11.4559C4.89875 11.4291 4.8175 11.3503 4.79063 11.2481C4.76375 11.1459 4.79313 11.0369 4.86969 10.9638L5.43094 10.4172L4.86969 9.87062C4.79313 9.79781 4.76281 9.68969 4.79063 9.5875C4.81844 9.48531 4.89875 9.40531 5.00094 9.37969L5.76031 9.18656L5.54781 8.43344C5.51875 8.33125 5.54781 8.22219 5.62188 8.14781C5.69594 8.07375 5.80531 8.04469 5.9075 8.07375L6.66062 8.28625L6.8525 7.52688C6.87937 7.42469 6.95812 7.34344 7.06031 7.31656C7.1625 7.28969 7.27156 7.31906 7.34469 7.39563L7.89125 7.95688L8.43781 7.39563C8.51062 7.31906 8.61875 7.28875 8.72094 7.31656C8.82313 7.34438 8.90313 7.42469 8.92875 7.52688L9.12187 8.28625L9.875 8.07375C9.97719 8.04469 10.0863 8.07375 10.1606 8.14781C10.2347 8.22188 10.2638 8.33125 10.2347 8.43344L10.0222 9.18656L10.7816 9.37844C10.8838 9.40531 10.9637 9.48406 10.9919 9.58625C11.0197 9.68844 10.9894 9.79656 10.9141 9.87062L10.3528 10.4172L10.9141 10.9638Z" fill="#1BA38E"/>
</svg>
