<svg width="16" height="16" viewBox="0 0 16 16" fill="none" xmlns="http://www.w3.org/2000/svg">
<path d="M10 0V4H14L10 0Z" fill="white"/>
<path d="M8.49187 8.51344C8.24406 8.43719 7.94437 8.39906 7.59312 8.39906H6.83406V12.2531H7.70562C7.89656 12.2531 8.04656 12.2481 8.155 12.2375C8.26344 12.2272 8.37562 12.2013 8.49187 12.16C8.60812 12.1188 8.70875 12.0606 8.79406 11.9856C9.17875 11.6603 9.37125 11.1 9.37125 10.3044C9.37125 9.74406 9.28656 9.32438 9.1175 9.04563C8.94844 8.76688 8.73969 8.58938 8.49187 8.51344Z" fill="white"/>
<path d="M10 5C9.44688 5 9 4.55313 9 4V0H4C2.89688 0 2 0.896875 2 2V14C2 15.1031 2.89688 16 4 16H12C13.1031 16 14 15.1031 14 14V5H10ZM4.5 2H6.5C6.775 2 7 2.225 7 2.5C7 2.775 6.775 3 6.5 3H4.5C4.225 3 4 2.775 4 2.5C4 2.225 4.225 2 4.5 2ZM4 4.5C4 4.225 4.225 4 4.5 4H6.5C6.775 4 7 4.225 7 4.5C7 4.775 6.775 5 6.5 5H4.5C4.225 5 4 4.775 4 4.5ZM10.4481 11.2463C10.3888 11.5278 10.2972 11.7816 10.1731 12.0075C10.0491 12.2334 9.89031 12.4356 9.69656 12.6138C9.54406 12.7506 9.3775 12.8603 9.19688 12.9431C9.01625 13.0259 8.82187 13.0838 8.61406 13.1175C8.40625 13.1513 8.17188 13.1678 7.91094 13.1678H6.41187C6.20281 13.1678 6.045 13.1362 5.93938 13.0728C5.83344 13.0097 5.76438 12.9206 5.73219 12.8056C5.7 12.6906 5.68375 12.5416 5.68375 12.3581V8.19406C5.68375 7.94625 5.73938 7.76656 5.85031 7.65563C5.96125 7.54469 6.14094 7.48906 6.38875 7.48906H7.88781C8.27781 7.48906 8.61219 7.52531 8.89094 7.5975C9.16969 7.66969 9.42281 7.80531 9.65 8.00438C10.2413 8.51063 10.5372 9.28 10.5372 10.3131C10.5372 10.6541 10.5075 10.965 10.4481 11.2463Z" fill="white"/>
</svg>
