<svg width="16" height="16" viewBox="0 0 16 16" fill="none" xmlns="http://www.w3.org/2000/svg">
<path d="M10 0V4H14L10 0Z" fill="#1BA38E"/>
<path d="M10 5C9.44688 5 9 4.55313 9 4V0H4C2.89688 0 2 0.896875 2 2V14C2 15.1031 2.89688 16 4 16H12C13.1031 16 14 15.1031 14 14V5H10ZM6.36906 12.4322C6.36906 12.8384 6.03969 13.1675 5.63375 13.1675H5.47281C5.06656 13.1675 4.7375 12.8381 4.7375 12.4322V8.22625C4.7375 7.82 5.06687 7.49094 5.47281 7.49094H5.63375C6.04 7.49094 6.36906 7.82031 6.36906 8.22625V12.4322ZM6.5 5H4.5C4.225 5 4 4.775 4 4.5C4 4.225 4.225 4 4.5 4H6.5C6.775 4 7 4.225 7 4.5C7 4.775 6.775 5 6.5 5ZM6.5 3H4.5C4.225 3 4 2.775 4 2.5C4 2.225 4.225 2 4.5 2H6.5C6.775 2 7 2.225 7 2.5C7 2.775 6.775 3 6.5 3ZM8.82969 12.4303C8.82969 12.8366 8.50031 13.1656 8.09438 13.1656H7.93344C7.52719 13.1656 7.19813 12.8362 7.19813 12.4303V8.22438C7.19813 7.81813 7.5275 7.48906 7.93344 7.48906H8.09438C8.50063 7.48906 8.82969 7.81844 8.82969 8.22438V12.4303ZM11.2903 12.4322C11.2903 12.8384 10.9609 13.1675 10.555 13.1675H10.3941C9.98781 13.1675 9.65875 12.8381 9.65875 12.4322V8.22625C9.65875 7.82 9.98813 7.49094 10.3941 7.49094H10.555C10.9613 7.49094 11.2903 7.82031 11.2903 8.22625V12.4322Z" fill="#1BA38E"/>
</svg>
