<svg width="16" height="16" viewBox="0 0 16 16" fill="none" xmlns="http://www.w3.org/2000/svg">
<path d="M6.45645 6.45645C6.61447 5.77541 7.23476 5.30321 7.93329 5.33221C8.71506 5.2889 9.38526 5.88463 9.43391 6.66609C9.43391 7.66912 7.99998 7.99998 7.99998 8.66693" stroke="white" stroke-linecap="round" stroke-linejoin="round"/>
<path d="M8.08347 10.5012C8.08341 10.5472 8.04608 10.5844 8.00006 10.5844C7.95405 10.5844 7.91675 10.5471 7.91673 10.5011C7.91671 10.4551 7.95398 10.4177 7.99999 10.4177C8.02214 10.4176 8.04339 10.4264 8.05905 10.4421C8.07471 10.4578 8.08349 10.479 8.08347 10.5012" stroke="white" stroke-linecap="round" stroke-linejoin="round"/>
<path fill-rule="evenodd" clip-rule="evenodd" d="M3.0856 11.4403C1.29686 8.88712 1.75654 5.39023 4.14434 3.3861C6.53214 1.38196 10.0558 1.53558 12.2601 3.73991C14.4644 5.94424 14.618 9.46786 12.6139 11.8557C10.6098 14.2435 7.11288 14.7031 4.55973 12.9144L2.66444 13.3356L3.0856 11.4403Z" stroke="white" stroke-linecap="round" stroke-linejoin="round"/>
</svg>
