<svg width="16" height="16" viewBox="0 0 16 16" fill="none" xmlns="http://www.w3.org/2000/svg">
<path d="M8.62666 7.37332L3.91333 12.0867" stroke="#1BA38E" stroke-linecap="round" stroke-linejoin="round"/>
<path d="M4.422 8.66599L2.11333 8.12066C1.85933 8.06066 1.77 7.74532 1.954 7.56066L3.79 5.72466C3.91333 5.60132 4.08067 5.53066 4.256 5.52932L6.326 5.51132" stroke="#1BA38E" stroke-linecap="round" stroke-linejoin="round"/>
<path fill-rule="evenodd" clip-rule="evenodd" d="M13.2527 5.98334L13.7913 3.39134C13.938 2.68601 13.314 2.06201 12.6087 2.20867L10.0167 2.74734C9.25334 2.90601 8.55334 3.28401 8.00267 3.83534L5.87601 5.96134C5.06467 6.77267 4.53667 7.82467 4.37001 8.96001L4.36267 9.00867C4.25734 9.73334 4.50001 10.4647 5.01734 10.9827V10.9827C5.53467 11.5 6.26667 11.7427 6.99134 11.6367L7.04001 11.6293C8.17534 11.4633 9.22734 10.9347 10.0387 10.1233L12.1647 7.99734C12.716 7.44667 13.094 6.74667 13.2527 5.98334V5.98334Z" stroke="#1BA38E" stroke-linecap="round" stroke-linejoin="round"/>
<path d="M8.93332 3.14267C10.474 4.19334 11.8067 5.526 12.8573 7.06667" stroke="#1BA38E" stroke-linecap="round" stroke-linejoin="round"/>
<path d="M7.33334 11.578L7.87868 13.8866C7.93868 14.1406 8.25401 14.23 8.43868 14.046L10.2747 12.21C10.398 12.0866 10.4687 11.9193 10.47 11.744L10.488 9.67398" stroke="#1BA38E" stroke-linecap="round" stroke-linejoin="round"/>
</svg>
